<mxfile host="app.diagrams.net" modified="2020-11-08T17:38:50.344Z" agent="5.0 (X11)" etag="j2CB4j5oh_3VvJkax6J9" version="13.9.2" type="github">
  <diagram id="Z-b5cAyWAyKYfnYbo3Bn" name="Page-1">
    <mxGraphModel dx="1355" dy="764" grid="1" gridSize="10" guides="1" tooltips="1" connect="1" arrows="1" fold="1" page="1" pageScale="1" pageWidth="827" pageHeight="1169" math="0" shadow="0">
      <root>
        <mxCell id="0" />
        <mxCell id="1" parent="0" />
        <mxCell id="ooC6lOKoOg2Yj1UFIcr8-2" value="Start" style="rounded=1;whiteSpace=wrap;html=1;strokeColor=#000000;" parent="1" vertex="1">
          <mxGeometry x="387" y="50" width="120" height="50" as="geometry" />
        </mxCell>
        <mxCell id="ooC6lOKoOg2Yj1UFIcr8-4" value="" style="endArrow=classic;html=1;" parent="1" edge="1">
          <mxGeometry width="50" height="50" relative="1" as="geometry">
            <mxPoint x="446.5" y="115" as="sourcePoint" />
            <mxPoint x="446.5" y="135" as="targetPoint" />
            <Array as="points">
              <mxPoint x="446.5" y="95" />
            </Array>
          </mxGeometry>
        </mxCell>
        <mxCell id="KGL0aR0b3lEQFyuyE3_W-6" style="edgeStyle=orthogonalEdgeStyle;rounded=0;orthogonalLoop=1;jettySize=auto;html=1;entryX=0.5;entryY=0;entryDx=0;entryDy=0;" parent="1" target="KGL0aR0b3lEQFyuyE3_W-7" edge="1">
          <mxGeometry relative="1" as="geometry">
            <mxPoint x="227" y="450" as="targetPoint" />
            <mxPoint x="387" y="225" as="sourcePoint" />
          </mxGeometry>
        </mxCell>
        <mxCell id="ooC6lOKoOg2Yj1UFIcr8-5" value="&lt;div&gt;&lt;br&gt;&lt;/div&gt;&lt;div&gt;data[]&lt;/div&gt;&lt;div&gt;while i&amp;lt;6&lt;br&gt;&lt;/div&gt;&lt;div&gt;&lt;br&gt;&lt;/div&gt;" style="shape=hexagon;perimeter=hexagonPerimeter2;whiteSpace=wrap;html=1;fixedSize=1;strokeColor=#000000;size=20;align=center;spacing=2;labelPosition=center;verticalLabelPosition=middle;verticalAlign=middle;" parent="1" vertex="1">
          <mxGeometry x="347" y="200" width="200" height="50" as="geometry" />
        </mxCell>
        <mxCell id="ooC6lOKoOg2Yj1UFIcr8-6" value="int i=0" style="rounded=0;whiteSpace=wrap;html=1;strokeColor=#000000;" parent="1" vertex="1">
          <mxGeometry x="387" y="135" width="120" height="35" as="geometry" />
        </mxCell>
        <mxCell id="ooC6lOKoOg2Yj1UFIcr8-10" value="" style="endArrow=classic;html=1;" parent="1" edge="1">
          <mxGeometry width="50" height="50" relative="1" as="geometry">
            <mxPoint x="446.5" y="170" as="sourcePoint" />
            <mxPoint x="446.5" y="200" as="targetPoint" />
            <Array as="points">
              <mxPoint x="446.5" y="200" />
            </Array>
          </mxGeometry>
        </mxCell>
        <mxCell id="ooC6lOKoOg2Yj1UFIcr8-11" value="Enter element" style="shape=parallelogram;perimeter=parallelogramPerimeter;whiteSpace=wrap;html=1;fixedSize=1;strokeColor=#000000;" parent="1" vertex="1">
          <mxGeometry x="367" y="280" width="160" height="40" as="geometry" />
        </mxCell>
        <mxCell id="ooC6lOKoOg2Yj1UFIcr8-13" value="" style="endArrow=classic;html=1;" parent="1" edge="1">
          <mxGeometry width="50" height="50" relative="1" as="geometry">
            <mxPoint x="447" y="250" as="sourcePoint" />
            <mxPoint x="446.5" y="280" as="targetPoint" />
          </mxGeometry>
        </mxCell>
        <mxCell id="KGL0aR0b3lEQFyuyE3_W-3" style="edgeStyle=orthogonalEdgeStyle;rounded=0;orthogonalLoop=1;jettySize=auto;html=1;entryX=0.5;entryY=0;entryDx=0;entryDy=0;" parent="1" target="KGL0aR0b3lEQFyuyE3_W-7" edge="1">
          <mxGeometry relative="1" as="geometry">
            <mxPoint x="227" y="450" as="targetPoint" />
            <mxPoint x="382" y="395" as="sourcePoint" />
          </mxGeometry>
        </mxCell>
        <mxCell id="KGL0aR0b3lEQFyuyE3_W-11" style="edgeStyle=orthogonalEdgeStyle;rounded=0;orthogonalLoop=1;jettySize=auto;html=1;exitX=1;exitY=0.5;exitDx=0;exitDy=0;" parent="1" source="ooC6lOKoOg2Yj1UFIcr8-15" target="KGL0aR0b3lEQFyuyE3_W-12" edge="1">
          <mxGeometry relative="1" as="geometry">
            <mxPoint x="667" y="460" as="targetPoint" />
          </mxGeometry>
        </mxCell>
        <mxCell id="ooC6lOKoOg2Yj1UFIcr8-15" value="Is type of the element integer?" style="rhombus;whiteSpace=wrap;html=1;strokeColor=#000000;" parent="1" vertex="1">
          <mxGeometry x="342" y="350" width="210" height="90" as="geometry" />
        </mxCell>
        <mxCell id="ooC6lOKoOg2Yj1UFIcr8-17" value="" style="endArrow=classic;html=1;" parent="1" edge="1">
          <mxGeometry width="50" height="50" relative="1" as="geometry">
            <mxPoint x="446.5" y="320" as="sourcePoint" />
            <mxPoint x="446.5" y="350" as="targetPoint" />
          </mxGeometry>
        </mxCell>
        <mxCell id="KGL0aR0b3lEQFyuyE3_W-9" style="edgeStyle=orthogonalEdgeStyle;rounded=0;orthogonalLoop=1;jettySize=auto;html=1;" parent="1" source="KGL0aR0b3lEQFyuyE3_W-7" edge="1">
          <mxGeometry relative="1" as="geometry">
            <mxPoint x="57" y="890" as="targetPoint" />
            <Array as="points">
              <mxPoint x="57" y="600" />
              <mxPoint x="57" y="870" />
            </Array>
          </mxGeometry>
        </mxCell>
        <mxCell id="KGL0aR0b3lEQFyuyE3_W-17" style="edgeStyle=orthogonalEdgeStyle;rounded=0;orthogonalLoop=1;jettySize=auto;html=1;" parent="1" source="KGL0aR0b3lEQFyuyE3_W-7" edge="1">
          <mxGeometry relative="1" as="geometry">
            <mxPoint x="547" y="640" as="targetPoint" />
            <Array as="points">
              <mxPoint x="547" y="600" />
            </Array>
          </mxGeometry>
        </mxCell>
        <mxCell id="KGL0aR0b3lEQFyuyE3_W-7" value="i&amp;gt;=1" style="rhombus;whiteSpace=wrap;html=1;align=center;" parent="1" vertex="1">
          <mxGeometry x="167" y="560" width="120" height="80" as="geometry" />
        </mxCell>
        <mxCell id="KGL0aR0b3lEQFyuyE3_W-8" value="No" style="text;html=1;align=center;verticalAlign=middle;resizable=0;points=[];autosize=1;" parent="1" vertex="1">
          <mxGeometry x="312" y="379" width="30" height="20" as="geometry" />
        </mxCell>
        <mxCell id="KGL0aR0b3lEQFyuyE3_W-10" value="No" style="text;html=1;align=center;verticalAlign=middle;resizable=0;points=[];autosize=1;" parent="1" vertex="1">
          <mxGeometry x="137" y="584" width="30" height="20" as="geometry" />
        </mxCell>
        <mxCell id="KGL0aR0b3lEQFyuyE3_W-13" style="edgeStyle=orthogonalEdgeStyle;rounded=0;orthogonalLoop=1;jettySize=auto;html=1;exitX=0.5;exitY=1;exitDx=0;exitDy=0;" parent="1" source="KGL0aR0b3lEQFyuyE3_W-12" edge="1">
          <mxGeometry relative="1" as="geometry">
            <mxPoint x="647" y="520" as="targetPoint" />
          </mxGeometry>
        </mxCell>
        <mxCell id="KGL0aR0b3lEQFyuyE3_W-12" value="i+=1" style="rounded=0;whiteSpace=wrap;html=1;" parent="1" vertex="1">
          <mxGeometry x="587" y="450" width="120" height="40" as="geometry" />
        </mxCell>
        <mxCell id="KGL0aR0b3lEQFyuyE3_W-15" style="edgeStyle=orthogonalEdgeStyle;rounded=0;orthogonalLoop=1;jettySize=auto;html=1;entryX=1;entryY=0.5;entryDx=0;entryDy=0;" parent="1" source="KGL0aR0b3lEQFyuyE3_W-14" target="ooC6lOKoOg2Yj1UFIcr8-5" edge="1">
          <mxGeometry relative="1" as="geometry">
            <mxPoint x="857" y="180" as="targetPoint" />
            <Array as="points">
              <mxPoint x="827" y="540" />
              <mxPoint x="827" y="225" />
            </Array>
          </mxGeometry>
        </mxCell>
        <mxCell id="KGL0aR0b3lEQFyuyE3_W-14" value="data.push_back(element)" style="rounded=0;whiteSpace=wrap;html=1;align=center;" parent="1" vertex="1">
          <mxGeometry x="567" y="520" width="160" height="40" as="geometry" />
        </mxCell>
        <mxCell id="P_6XiOEGU_nMjXpOql53-1" value="Yes" style="text;html=1;align=center;verticalAlign=middle;resizable=0;points=[];autosize=1;" parent="1" vertex="1">
          <mxGeometry x="267" y="580" width="40" height="20" as="geometry" />
        </mxCell>
        <mxCell id="P_6XiOEGU_nMjXpOql53-3" value="Yes" style="text;html=1;align=center;verticalAlign=middle;resizable=0;points=[];autosize=1;" parent="1" vertex="1">
          <mxGeometry x="547" y="379" width="40" height="20" as="geometry" />
        </mxCell>
        <mxCell id="P_6XiOEGU_nMjXpOql53-6" style="edgeStyle=orthogonalEdgeStyle;rounded=0;orthogonalLoop=1;jettySize=auto;html=1;" parent="1" source="P_6XiOEGU_nMjXpOql53-5" edge="1">
          <mxGeometry relative="1" as="geometry">
            <mxPoint x="547" y="700" as="targetPoint" />
          </mxGeometry>
        </mxCell>
        <mxCell id="P_6XiOEGU_nMjXpOql53-5" value="Create box1[]" style="rounded=0;whiteSpace=wrap;html=1;" parent="1" vertex="1">
          <mxGeometry x="487" y="640" width="120" height="30" as="geometry" />
        </mxCell>
        <mxCell id="P_6XiOEGU_nMjXpOql53-8" style="edgeStyle=orthogonalEdgeStyle;rounded=0;orthogonalLoop=1;jettySize=auto;html=1;" parent="1" source="P_6XiOEGU_nMjXpOql53-7" edge="1">
          <mxGeometry relative="1" as="geometry">
            <mxPoint x="547" y="760" as="targetPoint" />
          </mxGeometry>
        </mxCell>
        <mxCell id="P_6XiOEGU_nMjXpOql53-7" value="j=0" style="rounded=0;whiteSpace=wrap;html=1;" parent="1" vertex="1">
          <mxGeometry x="487" y="700" width="120" height="30" as="geometry" />
        </mxCell>
        <mxCell id="P_6XiOEGU_nMjXpOql53-12" style="edgeStyle=orthogonalEdgeStyle;rounded=0;orthogonalLoop=1;jettySize=auto;html=1;exitX=0.5;exitY=1;exitDx=0;exitDy=0;" parent="1" source="P_6XiOEGU_nMjXpOql53-10" edge="1">
          <mxGeometry relative="1" as="geometry">
            <mxPoint x="547" y="830" as="targetPoint" />
          </mxGeometry>
        </mxCell>
        <mxCell id="P_6XiOEGU_nMjXpOql53-17" style="edgeStyle=orthogonalEdgeStyle;rounded=0;orthogonalLoop=1;jettySize=auto;html=1;exitX=0;exitY=0.5;exitDx=0;exitDy=0;" parent="1" source="P_6XiOEGU_nMjXpOql53-10" target="P_6XiOEGU_nMjXpOql53-18" edge="1">
          <mxGeometry relative="1" as="geometry">
            <mxPoint x="257" y="830" as="targetPoint" />
            <mxPoint x="427" y="780" as="sourcePoint" />
          </mxGeometry>
        </mxCell>
        <mxCell id="P_6XiOEGU_nMjXpOql53-10" value="while i/2&amp;gt;j" style="shape=hexagon;perimeter=hexagonPerimeter2;whiteSpace=wrap;html=1;fixedSize=1;" parent="1" vertex="1">
          <mxGeometry x="487" y="760" width="120" height="40" as="geometry" />
        </mxCell>
        <mxCell id="P_6XiOEGU_nMjXpOql53-14" style="edgeStyle=orthogonalEdgeStyle;rounded=0;orthogonalLoop=1;jettySize=auto;html=1;" parent="1" source="P_6XiOEGU_nMjXpOql53-13" target="P_6XiOEGU_nMjXpOql53-15" edge="1">
          <mxGeometry relative="1" as="geometry">
            <mxPoint x="547" y="900" as="targetPoint" />
          </mxGeometry>
        </mxCell>
        <mxCell id="P_6XiOEGU_nMjXpOql53-13" value="box1.push_back(j)" style="rounded=0;whiteSpace=wrap;html=1;" parent="1" vertex="1">
          <mxGeometry x="487" y="830" width="120" height="40" as="geometry" />
        </mxCell>
        <mxCell id="P_6XiOEGU_nMjXpOql53-16" style="edgeStyle=orthogonalEdgeStyle;rounded=0;orthogonalLoop=1;jettySize=auto;html=1;entryX=1;entryY=0.5;entryDx=0;entryDy=0;" parent="1" source="P_6XiOEGU_nMjXpOql53-15" target="P_6XiOEGU_nMjXpOql53-10" edge="1">
          <mxGeometry relative="1" as="geometry">
            <Array as="points">
              <mxPoint x="747" y="905" />
              <mxPoint x="747" y="780" />
            </Array>
          </mxGeometry>
        </mxCell>
        <mxCell id="P_6XiOEGU_nMjXpOql53-15" value="j+=1" style="rounded=0;whiteSpace=wrap;html=1;" parent="1" vertex="1">
          <mxGeometry x="487" y="890" width="120" height="30" as="geometry" />
        </mxCell>
        <mxCell id="P_6XiOEGU_nMjXpOql53-19" style="edgeStyle=orthogonalEdgeStyle;rounded=0;orthogonalLoop=1;jettySize=auto;html=1;" parent="1" source="P_6XiOEGU_nMjXpOql53-18" edge="1">
          <mxGeometry relative="1" as="geometry">
            <mxPoint x="257" y="860" as="targetPoint" />
          </mxGeometry>
        </mxCell>
        <mxCell id="P_6XiOEGU_nMjXpOql53-18" value="Create box2[]" style="rounded=0;whiteSpace=wrap;html=1;" parent="1" vertex="1">
          <mxGeometry x="197" y="810" width="120" height="30" as="geometry" />
        </mxCell>
        <mxCell id="P_6XiOEGU_nMjXpOql53-21" style="edgeStyle=orthogonalEdgeStyle;rounded=0;orthogonalLoop=1;jettySize=auto;html=1;" parent="1" source="P_6XiOEGU_nMjXpOql53-20" edge="1">
          <mxGeometry relative="1" as="geometry">
            <mxPoint x="257" y="920" as="targetPoint" />
          </mxGeometry>
        </mxCell>
        <mxCell id="P_6XiOEGU_nMjXpOql53-20" value="k=i/2" style="rounded=0;whiteSpace=wrap;html=1;" parent="1" vertex="1">
          <mxGeometry x="197" y="860" width="120" height="30" as="geometry" />
        </mxCell>
        <mxCell id="P_6XiOEGU_nMjXpOql53-29" style="edgeStyle=orthogonalEdgeStyle;rounded=0;orthogonalLoop=1;jettySize=auto;html=1;entryX=0.5;entryY=0;entryDx=0;entryDy=0;" parent="1" source="P_6XiOEGU_nMjXpOql53-23" target="P_6XiOEGU_nMjXpOql53-26" edge="1">
          <mxGeometry relative="1" as="geometry" />
        </mxCell>
        <mxCell id="P_6XiOEGU_nMjXpOql53-33" style="edgeStyle=orthogonalEdgeStyle;rounded=0;orthogonalLoop=1;jettySize=auto;html=1;entryX=0.5;entryY=0;entryDx=0;entryDy=0;" parent="1" source="P_6XiOEGU_nMjXpOql53-23" target="P_6XiOEGU_nMjXpOql53-35" edge="1">
          <mxGeometry relative="1" as="geometry">
            <mxPoint x="157" y="1110" as="targetPoint" />
            <Array as="points">
              <mxPoint x="117" y="940" />
              <mxPoint x="117" y="1110" />
              <mxPoint x="212" y="1110" />
            </Array>
          </mxGeometry>
        </mxCell>
        <mxCell id="P_6XiOEGU_nMjXpOql53-23" value="while k&amp;lt;i" style="shape=hexagon;perimeter=hexagonPerimeter2;whiteSpace=wrap;html=1;fixedSize=1;" parent="1" vertex="1">
          <mxGeometry x="197" y="920" width="120" height="40" as="geometry" />
        </mxCell>
        <mxCell id="P_6XiOEGU_nMjXpOql53-30" style="edgeStyle=orthogonalEdgeStyle;rounded=0;orthogonalLoop=1;jettySize=auto;html=1;exitX=0.5;exitY=1;exitDx=0;exitDy=0;" parent="1" source="P_6XiOEGU_nMjXpOql53-26" edge="1">
          <mxGeometry relative="1" as="geometry">
            <mxPoint x="257" y="1040" as="targetPoint" />
          </mxGeometry>
        </mxCell>
        <mxCell id="P_6XiOEGU_nMjXpOql53-26" value="box2.push_back(k)" style="rounded=0;whiteSpace=wrap;html=1;" parent="1" vertex="1">
          <mxGeometry x="197" y="980" width="120" height="40" as="geometry" />
        </mxCell>
        <mxCell id="P_6XiOEGU_nMjXpOql53-32" style="edgeStyle=orthogonalEdgeStyle;rounded=0;orthogonalLoop=1;jettySize=auto;html=1;entryX=1;entryY=0.5;entryDx=0;entryDy=0;" parent="1" source="P_6XiOEGU_nMjXpOql53-31" target="P_6XiOEGU_nMjXpOql53-23" edge="1">
          <mxGeometry relative="1" as="geometry">
            <Array as="points">
              <mxPoint x="377" y="1055" />
              <mxPoint x="377" y="940" />
            </Array>
          </mxGeometry>
        </mxCell>
        <mxCell id="P_6XiOEGU_nMjXpOql53-31" value="k+=1" style="rounded=0;whiteSpace=wrap;html=1;" parent="1" vertex="1">
          <mxGeometry x="197" y="1040" width="120" height="30" as="geometry" />
        </mxCell>
        <mxCell id="P_6XiOEGU_nMjXpOql53-37" style="edgeStyle=orthogonalEdgeStyle;rounded=0;orthogonalLoop=1;jettySize=auto;html=1;exitX=0;exitY=0.5;exitDx=0;exitDy=0;" parent="1" source="P_6XiOEGU_nMjXpOql53-35" edge="1">
          <mxGeometry relative="1" as="geometry">
            <mxPoint x="77" y="1550" as="targetPoint" />
            <Array as="points">
              <mxPoint x="77" y="1170" />
              <mxPoint x="77" y="1530" />
            </Array>
          </mxGeometry>
        </mxCell>
        <mxCell id="P_6XiOEGU_nMjXpOql53-38" style="edgeStyle=orthogonalEdgeStyle;rounded=0;orthogonalLoop=1;jettySize=auto;html=1;exitX=1;exitY=0.5;exitDx=0;exitDy=0;" parent="1" source="P_6XiOEGU_nMjXpOql53-35" edge="1">
          <mxGeometry relative="1" as="geometry">
            <mxPoint x="537" y="1220" as="targetPoint" />
            <Array as="points">
              <mxPoint x="537" y="1165" />
              <mxPoint x="537" y="1200" />
            </Array>
          </mxGeometry>
        </mxCell>
        <mxCell id="P_6XiOEGU_nMjXpOql53-35" value="box1.size()&amp;gt;box2.size()" style="rhombus;whiteSpace=wrap;html=1;" parent="1" vertex="1">
          <mxGeometry x="97" y="1130" width="230" height="70" as="geometry" />
        </mxCell>
        <mxCell id="P_6XiOEGU_nMjXpOql53-40" style="edgeStyle=orthogonalEdgeStyle;rounded=0;orthogonalLoop=1;jettySize=auto;html=1;exitX=0.5;exitY=1;exitDx=0;exitDy=0;entryX=0.5;entryY=0;entryDx=0;entryDy=0;" parent="1" source="P_6XiOEGU_nMjXpOql53-39" edge="1" target="s2mBqUQljC03Y1ilV7Dx-6">
          <mxGeometry relative="1" as="geometry">
            <mxPoint x="537" y="1290" as="targetPoint" />
          </mxGeometry>
        </mxCell>
        <mxCell id="P_6XiOEGU_nMjXpOql53-39" value="&lt;div&gt;box1.sort()&lt;/div&gt;&lt;div&gt;box2.sort()&lt;br&gt;&lt;/div&gt;" style="rounded=0;whiteSpace=wrap;html=1;" parent="1" vertex="1">
          <mxGeometry x="477" y="1220" width="120" height="40" as="geometry" />
        </mxCell>
        <mxCell id="P_6XiOEGU_nMjXpOql53-41" value="No" style="text;html=1;align=center;verticalAlign=middle;resizable=0;points=[];autosize=1;" parent="1" vertex="1">
          <mxGeometry x="332" y="1150" width="30" height="20" as="geometry" />
        </mxCell>
        <mxCell id="P_6XiOEGU_nMjXpOql53-42" value="Yes" style="text;html=1;align=center;verticalAlign=middle;resizable=0;points=[];autosize=1;" parent="1" vertex="1">
          <mxGeometry x="67" y="1150" width="40" height="20" as="geometry" />
        </mxCell>
        <mxCell id="P_6XiOEGU_nMjXpOql53-44" style="edgeStyle=orthogonalEdgeStyle;rounded=0;orthogonalLoop=1;jettySize=auto;html=1;exitX=0;exitY=0.5;exitDx=0;exitDy=0;" parent="1" source="P_6XiOEGU_nMjXpOql53-43" edge="1">
          <mxGeometry relative="1" as="geometry">
            <mxPoint x="372" y="1450" as="targetPoint" />
            <Array as="points">
              <mxPoint x="372" y="1410" />
            </Array>
          </mxGeometry>
        </mxCell>
        <mxCell id="P_6XiOEGU_nMjXpOql53-43" value="while (j&amp;lt;i/2) &amp;amp;&amp;amp; (k&amp;lt;i)" style="shape=hexagon;perimeter=hexagonPerimeter2;whiteSpace=wrap;html=1;fixedSize=1;" parent="1" vertex="1">
          <mxGeometry x="452" y="1380" width="170" height="60" as="geometry" />
        </mxCell>
        <mxCell id="s2mBqUQljC03Y1ilV7Dx-2" value="j=0" style="rounded=0;whiteSpace=wrap;html=1;" vertex="1" parent="1">
          <mxGeometry x="332" y="760" width="85" height="40" as="geometry" />
        </mxCell>
        <mxCell id="s2mBqUQljC03Y1ilV7Dx-3" value="" style="endArrow=classic;html=1;exitX=0;exitY=0.5;exitDx=0;exitDy=0;" edge="1" parent="1" source="P_6XiOEGU_nMjXpOql53-10">
          <mxGeometry width="50" height="50" relative="1" as="geometry">
            <mxPoint x="476" y="779.5" as="sourcePoint" />
            <mxPoint x="417" y="779.5" as="targetPoint" />
            <Array as="points">
              <mxPoint x="457" y="779.5" />
            </Array>
          </mxGeometry>
        </mxCell>
        <mxCell id="s2mBqUQljC03Y1ilV7Dx-4" value="k=0" style="rounded=0;whiteSpace=wrap;html=1;" vertex="1" parent="1">
          <mxGeometry x="77" y="990" width="80" height="40" as="geometry" />
        </mxCell>
        <mxCell id="s2mBqUQljC03Y1ilV7Dx-5" value="" style="endArrow=classic;html=1;" edge="1" parent="1">
          <mxGeometry width="50" height="50" relative="1" as="geometry">
            <mxPoint x="116.5" y="960" as="sourcePoint" />
            <mxPoint x="116.5" y="990" as="targetPoint" />
            <Array as="points">
              <mxPoint x="116.5" y="980" />
            </Array>
          </mxGeometry>
        </mxCell>
        <mxCell id="s2mBqUQljC03Y1ilV7Dx-9" style="edgeStyle=orthogonalEdgeStyle;rounded=0;orthogonalLoop=1;jettySize=auto;html=1;entryX=0.5;entryY=0;entryDx=0;entryDy=0;" edge="1" parent="1" source="s2mBqUQljC03Y1ilV7Dx-6" target="P_6XiOEGU_nMjXpOql53-43">
          <mxGeometry relative="1" as="geometry" />
        </mxCell>
        <mxCell id="s2mBqUQljC03Y1ilV7Dx-6" value="&lt;div&gt;box1_counter=0&lt;/div&gt;&lt;div&gt;box2_counter=0&lt;br&gt;&lt;/div&gt;" style="rounded=0;whiteSpace=wrap;html=1;" vertex="1" parent="1">
          <mxGeometry x="477" y="1300" width="120" height="60" as="geometry" />
        </mxCell>
        <mxCell id="s2mBqUQljC03Y1ilV7Dx-11" style="edgeStyle=orthogonalEdgeStyle;rounded=0;orthogonalLoop=1;jettySize=auto;html=1;" edge="1" parent="1" source="s2mBqUQljC03Y1ilV7Dx-10">
          <mxGeometry relative="1" as="geometry">
            <mxPoint x="677" y="1490" as="targetPoint" />
          </mxGeometry>
        </mxCell>
        <mxCell id="s2mBqUQljC03Y1ilV7Dx-12" style="edgeStyle=orthogonalEdgeStyle;rounded=0;orthogonalLoop=1;jettySize=auto;html=1;exitX=0;exitY=0.5;exitDx=0;exitDy=0;" edge="1" parent="1" source="s2mBqUQljC03Y1ilV7Dx-10">
          <mxGeometry relative="1" as="geometry">
            <mxPoint x="237" y="1580" as="targetPoint" />
            <Array as="points">
              <mxPoint x="237" y="1490" />
            </Array>
          </mxGeometry>
        </mxCell>
        <mxCell id="s2mBqUQljC03Y1ilV7Dx-10" value="&lt;div&gt;box1[j]&lt;/div&gt;&lt;div&gt;=&lt;/div&gt;&lt;div&gt;box2[k]&lt;br&gt;&lt;/div&gt;" style="rhombus;whiteSpace=wrap;html=1;" vertex="1" parent="1">
          <mxGeometry x="310" y="1450" width="125" height="80" as="geometry" />
        </mxCell>
        <mxCell id="s2mBqUQljC03Y1ilV7Dx-15" style="edgeStyle=orthogonalEdgeStyle;rounded=0;orthogonalLoop=1;jettySize=auto;html=1;exitX=0.5;exitY=0;exitDx=0;exitDy=0;entryX=1;entryY=0.5;entryDx=0;entryDy=0;" edge="1" parent="1" source="s2mBqUQljC03Y1ilV7Dx-14" target="P_6XiOEGU_nMjXpOql53-43">
          <mxGeometry relative="1" as="geometry" />
        </mxCell>
        <mxCell id="s2mBqUQljC03Y1ilV7Dx-14" value="&lt;div&gt;j++&lt;/div&gt;&lt;div&gt;k++&lt;br&gt;&lt;/div&gt;" style="rounded=0;whiteSpace=wrap;html=1;" vertex="1" parent="1">
          <mxGeometry x="677" y="1470" width="90" height="40" as="geometry" />
        </mxCell>
        <mxCell id="s2mBqUQljC03Y1ilV7Dx-16" value="Yes" style="text;html=1;align=center;verticalAlign=middle;resizable=0;points=[];autosize=1;" vertex="1" parent="1">
          <mxGeometry x="427" y="1470" width="40" height="20" as="geometry" />
        </mxCell>
        <mxCell id="s2mBqUQljC03Y1ilV7Dx-17" value="No" style="text;html=1;align=center;verticalAlign=middle;resizable=0;points=[];autosize=1;" vertex="1" parent="1">
          <mxGeometry x="282" y="1470" width="30" height="20" as="geometry" />
        </mxCell>
        <mxCell id="s2mBqUQljC03Y1ilV7Dx-19" style="edgeStyle=orthogonalEdgeStyle;rounded=0;orthogonalLoop=1;jettySize=auto;html=1;" edge="1" parent="1" source="s2mBqUQljC03Y1ilV7Dx-18">
          <mxGeometry relative="1" as="geometry">
            <mxPoint x="417" y="1690" as="targetPoint" />
          </mxGeometry>
        </mxCell>
        <mxCell id="s2mBqUQljC03Y1ilV7Dx-18" value="&lt;div&gt;box1[j]&lt;/div&gt;&lt;div&gt;&amp;gt;&lt;/div&gt;&lt;div&gt;box2[k]&lt;br&gt;&lt;/div&gt;" style="rhombus;whiteSpace=wrap;html=1;" vertex="1" parent="1">
          <mxGeometry x="167" y="1580" width="138" height="80" as="geometry" />
        </mxCell>
        <mxCell id="s2mBqUQljC03Y1ilV7Dx-22" value="No" style="text;html=1;align=center;verticalAlign=middle;resizable=0;points=[];autosize=1;" vertex="1" parent="1">
          <mxGeometry x="302" y="1600" width="30" height="20" as="geometry" />
        </mxCell>
        <mxCell id="s2mBqUQljC03Y1ilV7Dx-23" value="Yes" style="text;html=1;align=center;verticalAlign=middle;resizable=0;points=[];autosize=1;" vertex="1" parent="1">
          <mxGeometry x="137" y="1600" width="40" height="20" as="geometry" />
        </mxCell>
        <mxCell id="s2mBqUQljC03Y1ilV7Dx-28" style="edgeStyle=orthogonalEdgeStyle;rounded=0;orthogonalLoop=1;jettySize=auto;html=1;endSize=6;" edge="1" parent="1" source="s2mBqUQljC03Y1ilV7Dx-24">
          <mxGeometry relative="1" as="geometry">
            <mxPoint x="297" y="1850" as="targetPoint" />
          </mxGeometry>
        </mxCell>
        <mxCell id="s2mBqUQljC03Y1ilV7Dx-24" value="box2_counter++" style="rounded=0;whiteSpace=wrap;html=1;" vertex="1" parent="1">
          <mxGeometry x="342" y="1690" width="140" height="40" as="geometry" />
        </mxCell>
        <mxCell id="s2mBqUQljC03Y1ilV7Dx-27" style="edgeStyle=orthogonalEdgeStyle;rounded=0;orthogonalLoop=1;jettySize=auto;html=1;endSize=6;" edge="1" parent="1">
          <mxGeometry relative="1" as="geometry">
            <mxPoint x="297" y="1852" as="targetPoint" />
            <mxPoint x="237" y="1710.5" as="sourcePoint" />
          </mxGeometry>
        </mxCell>
        <mxCell id="s2mBqUQljC03Y1ilV7Dx-25" value="box1_counter++" style="rounded=0;whiteSpace=wrap;html=1;" vertex="1" parent="1">
          <mxGeometry x="107" y="1687" width="130" height="43" as="geometry" />
        </mxCell>
        <mxCell id="s2mBqUQljC03Y1ilV7Dx-26" style="edgeStyle=orthogonalEdgeStyle;rounded=0;orthogonalLoop=1;jettySize=auto;html=1;endSize=6;" edge="1" parent="1" source="s2mBqUQljC03Y1ilV7Dx-18" target="s2mBqUQljC03Y1ilV7Dx-25">
          <mxGeometry relative="1" as="geometry">
            <mxPoint x="137" y="1740" as="targetPoint" />
            <mxPoint x="167" y="1620" as="sourcePoint" />
            <Array as="points">
              <mxPoint x="137" y="1620" />
            </Array>
          </mxGeometry>
        </mxCell>
      </root>
    </mxGraphModel>
  </diagram>
</mxfile>
